<?xml version="1.0" encoding="UTF-8"?>
<svg version="1.1" xmlns="http://www.w3.org/2000/svg" width="500" height="500">
<path d="M0 0 C165 0 330 0 500 0 C500 165 500 330 500 500 C335 500 170 500 0 500 C0 335 0 170 0 0 Z " fill="#f0e8d5" transform="translate(0,0)"/>
<path d="M0 0 C0.66 0 1.32 0 2 0 C1.56955849 11.19147928 -4.06498362 20.07364368 -12.078125 27.61328125 C-16.3839261 31.13045301 -20.95751373 34.10654529 -25.703125 36.9921875 C-28.86534536 38.91799468 -31.93324968 40.92762024 -35 43 C-34.45811035 42.69819824 -33.9162207 42.39639648 -33.35791016 42.08544922 C1.38527788 22.89585515 41.02385764 15.53140344 80 26 C105.83689108 33.55150145 127.64445163 46.62000387 146.61328125 65.6171875 C147.92459203 66.92635211 149.25027037 68.22332739 150.6328125 69.45703125 C174.77182014 91.38434971 187.32378183 129.08132013 189.15673828 160.70410156 C190.21233188 189.80453622 184.22539377 215.58286993 170 241 C169.34 241 168.68 241 168 241 C169.42003027 237.40445538 170.90973416 233.84125311 172.41113281 230.27905273 C180.74215383 210.36989823 185.6252823 191.63254505 185.5 170 C185.49856995 169.19728668 185.49713989 168.39457336 185.4956665 167.5675354 C185.43437699 153.59543039 184.03691751 140.44021166 180 127 C179.78069824 126.26136719 179.56139648 125.52273437 179.33544922 124.76171875 C172.39450014 102.34271318 159.22983505 82.69288312 143 66 C142.45923828 65.43877441 141.91847656 64.87754883 141.36132812 64.29931641 C116.90052109 39.28506654 81.42470206 25.35951366 46.73413086 24.65332031 C34.23025136 24.5568744 22.21435877 25.29927926 10 28 C8.71480469 28.2784375 7.42960938 28.556875 6.10546875 28.84375 C-12.57100869 33.38086284 -31.03869346 41.84393844 -46 54 C-45.13109131 53.85997559 -44.26218262 53.71995117 -43.36694336 53.57568359 C-36.20207406 52.51048909 -29.18732541 51.82525899 -21.94140625 51.7265625 C-21.17436371 51.71542419 -20.40732117 51.70428589 -19.61703491 51.69281006 C-16.46480164 51.65411118 -13.31286847 51.62683035 -10.16040039 51.61914062 C1.98463269 51.68696317 1.98463269 51.68696317 13 47 C13.66 47 14.32 47 15 47 C11.41507727 54.93804319 4.5501285 57.93326097 -3.23046875 61.01953125 C-8.11842001 62.74996251 -12.48252909 63.17001855 -17.66015625 63.24609375 C-19.19206227 63.27906635 -20.72396318 63.31227735 -22.25585938 63.34570312 C-24.6492927 63.39278626 -27.04271067 63.43717231 -29.4362793 63.47680664 C-47.71883976 63.13687987 -47.71883976 63.13687987 -64 70 C-68.2656581 74.63532704 -73.00034704 80.00104112 -75 86 C-74.30648437 85.41992188 -73.61296875 84.83984375 -72.8984375 84.2421875 C-62.04410676 75.84544108 -47.70424142 68.52269349 -34 67 C-38.33273879 77.7421157 -51.53073321 86.7878696 -61.74316406 91.1796875 C-66.00843143 92.94850714 -70.27608082 94.70158012 -74.58496094 96.36181641 C-81.65426377 99.15055159 -86.5292213 101.6029861 -89.87890625 108.71484375 C-90.45518981 110.11628701 -91.01586483 111.52422863 -91.5625 112.9375 C-91.85842041 113.67734131 -92.15434082 114.41718262 -92.45922852 115.17944336 C-95.12312554 121.99041948 -97.1916964 128.91279771 -99 136 C-98.66871094 135.37996094 -98.33742188 134.75992188 -97.99609375 134.12109375 C-94.21435009 127.60967045 -89.89230874 122.65167056 -84.5 117.4375 C-77.39428045 110.56583489 -72.05964408 103.48234448 -67 95 C-66.01 95.495 -66.01 95.495 -65 96 C-64.06521257 109.42458615 -68.39780328 118.83246197 -77 129 C-81.87842939 134.25478566 -87.0000474 139.19696816 -92.4375 143.875 C-99.17416424 149.71619762 -101.41018668 154.59207186 -102.22314453 163.42431641 C-104.08957402 204.10601546 -88.43343953 240.73241126 -61.42871094 270.46923828 C-38.9369464 294.56755743 -3.93309649 311.82491629 29.12817383 313.12280273 C49.53522498 313.58484388 68.37019446 312.68720874 87.77734375 305.98828125 C91 305 91 305 95 305 C95 305.66 95 306.32 95 307 C57.19968538 320.80649789 15.80745906 320.01566714 -21 303 C-57.0929733 285.59944838 -84.29291775 254.585386 -98.13427734 217.04785156 C-101.00829452 208.60797114 -102.5293305 199.77416381 -104 191 C-104.1959375 189.89527344 -104.391875 188.79054688 -104.59375 187.65234375 C-104.94245568 184.51734556 -105.07106159 181.5314553 -105.10546875 178.3828125 C-105.12029297 177.36316406 -105.13511719 176.34351563 -105.15039062 175.29296875 C-105.17503708 173.18893999 -105.18039163 171.08459275 -105.16601562 168.98046875 C-105.32780438 161.20480321 -107.35563264 157.09812706 -112 151 C-118.27783407 138.23271948 -118.40497919 123.37214778 -119.53515625 109.453125 C-119.93199273 104.62281427 -120.44034166 99.8140523 -121 95 C-112.94576576 98.69069303 -108.3338098 108.58347128 -104.953125 116.4296875 C-103.598833 120.31291252 -102.71565693 124.24073886 -101.92578125 128.2734375 C-101.75087158 129.16208496 -101.57596191 130.05073242 -101.39575195 130.96630859 C-101.26515381 131.63742676 -101.13455566 132.30854492 -101 133 C-101.01047363 132.04859131 -101.02094727 131.09718262 -101.03173828 130.11694336 C-101.06855797 126.51053794 -101.09112021 122.90414823 -101.10986328 119.29760742 C-101.11978237 117.75102932 -101.13332187 116.20446924 -101.15087891 114.65795898 C-101.2995574 101.20255504 -100.70703955 88.00839685 -96.625 75.0625 C-96.40948486 74.35230713 -96.19396973 73.64211426 -95.97192383 72.91040039 C-94.43362061 67.99088743 -92.57409119 63.4808254 -90 59 C-89.34 59 -88.68 59 -88 59 C-88 71.87 -88 84.74 -88 98 C-84.69519222 93.59358963 -84.75876523 93.36058361 -85.25 88.3125 C-85.44601237 79.96797358 -82.43960964 73.61287853 -79.00976562 66.19042969 C-77.66741561 63.27854276 -76.38366838 60.34247505 -75.10180664 57.40356445 C-74.51026051 56.05066922 -73.9134338 54.7000654 -73.31030273 53.35229492 C-70.01104174 45.94133356 -68.43686934 39.12152626 -67.375 31.125 C-67.2409375 30.15046875 -67.106875 29.1759375 -66.96875 28.171875 C-66.64071404 25.78189874 -66.31795261 23.39133497 -66 21 C-65.01 21 -64.02 21 -63 21 C-60.95728163 35.4084599 -58.79560618 50.81017086 -63 65 C-62.59007812 64.566875 -62.18015625 64.13375 -61.7578125 63.6875 C-61.21898437 63.130625 -60.68015625 62.57375 -60.125 62 C-59.59132812 61.443125 -59.05765625 60.88625 -58.5078125 60.3125 C-57 59 -57 59 -55 59 C-54.88785156 57.96552734 -54.88785156 57.96552734 -54.7734375 56.91015625 C-53.13147967 45.17498702 -47.28532913 38.04404279 -38 31 C-30.08055059 25.40934303 -21.91933238 20.17807561 -13.6875 15.0625 C-7.23799879 10.9699266 -3.53760808 6.6821486 0 0 Z " fill="#171717" transform="translate(216,90)"/>
<path d="M0 0 C16.83 0 33.66 0 51 0 C51 0.99 51 1.98 51 3 C50.16597656 3.08636719 49.33195312 3.17273438 48.47265625 3.26171875 C31.6251338 5.36524675 23.59833115 14.34069258 13.31640625 27.1796875 C10.96398442 30.04385033 8.5116339 32.77485781 6 35.5 C2.70668301 39.07792463 -0.44651321 42.71539666 -3.5 46.5 C-7.32849821 51.24518087 -11.3745953 55.73513 -15.50390625 60.21875 C-18.83741066 63.93307729 -21.97062274 67.7927195 -25.08984375 71.6875 C-27 74 -27 74 -28.81640625 75.5625 C-29.20699219 76.036875 -29.59757812 76.51125 -30 77 C-29.56847456 80.27704245 -28.41109894 81.98048421 -26.1484375 84.328125 C-25.55224609 84.95460938 -24.95605469 85.58109375 -24.34179688 86.2265625 C-23.69275391 86.89429688 -23.04371094 87.56203125 -22.375 88.25 C-20.99720377 89.69252491 -19.619605 91.13523845 -18.2421875 92.578125 C-17.18209473 93.68124023 -17.18209473 93.68124023 -16.10058594 94.80664062 C-12.87194745 98.17787356 -9.68695125 101.58941786 -6.5 105 C-5.25154625 106.3322601 -4.00284743 107.66429059 -2.75390625 108.99609375 C-2.13531738 109.65593262 -1.51672852 110.31577148 -0.87939453 110.99560547 C1.00849753 113.0090627 2.89677957 115.02215353 4.78515625 117.03515625 C11.441663 124.13176262 18.09067454 131.23519799 24.72631836 138.35131836 C27.74258862 141.58494687 30.76265809 144.81491446 33.7890625 148.0390625 C34.73894043 149.05117798 34.73894043 149.05117798 35.70800781 150.08374023 C36.97998834 151.43817594 38.2527676 152.79186201 39.52636719 154.14477539 C42.45757321 157.2636734 45.36945847 160.39498921 48.2265625 163.58203125 C54.35689606 170.40437313 60.63578923 176.46865947 68 182 C69.19689453 182.90298828 69.19689453 182.90298828 70.41796875 183.82421875 C87.4082717 196.15812546 104.99462655 203.30169321 126 205 C126 205.99 126 206.98 126 208 C106.76580052 213.69902207 86.14385751 209.27819342 68.81298828 200.00927734 C48.3969372 188.64381072 31.62896484 172.30959287 16.46582031 154.68188477 C14.73120076 152.69157929 12.8989204 150.83344039 11 149 C7.74970017 145.79970478 4.75275755 142.45775424 1.78125 139 C-0.0742521 136.91662922 -2.01223101 134.95718793 -4 133 C-7.25029983 129.79970478 -10.24724245 126.45775424 -13.21875 123 C-15.0742521 120.91662922 -17.01223101 118.95718793 -19 117 C-22.25029983 113.79970478 -25.24724245 110.45775424 -28.21875 107 C-30.69768583 104.21663346 -33.3565692 101.63343576 -36.01171875 99.01953125 C-38.61925194 96.37101522 -41.04417483 93.5872252 -43.45703125 90.76171875 C-44.91080366 89.10184189 -46.42141586 87.54066019 -48 86 C-46.70891619 83.23344582 -45.2935196 80.95037933 -43.34765625 78.6015625 C-42.82413574 77.96460449 -42.30061523 77.32764648 -41.76123047 76.67138672 C-41.20064941 75.9960791 -40.64006836 75.32077148 -40.0625 74.625 C-38.87799647 73.18303853 -37.69441802 71.7403167 -36.51171875 70.296875 C-35.9192334 69.57435547 -35.32674805 68.85183594 -34.71630859 68.10742188 C-32.23292407 65.05812241 -29.79815312 61.97225675 -27.375 58.875 C-26.92825928 58.30458984 -26.48151855 57.73417969 -26.02124023 57.14648438 C-24.67969539 55.43187015 -23.33957836 53.7161509 -22 52 C-16.70436179 45.21569044 -11.38944459 38.45176359 -5.95336914 31.77905273 C-4.82750202 30.3966099 -3.70424189 29.01203937 -2.58374023 27.62524414 C-0.3051976 24.80736469 1.98037762 22.02223225 4.37890625 19.3046875 C7.68016777 15.47655798 9.38955766 13.09929212 9.4375 7.9375 C9.293125 6.638125 9.14875 5.33875 9 4 C6.03 3.67 3.06 3.34 0 3 C0 2.01 0 1.02 0 0 Z " fill="#060606" transform="translate(274,181)"/>
<path d="M0 0 C17.49 0 34.98 0 53 0 C53 0.99 53 1.98 53 3 C52.43152344 3.00257813 51.86304688 3.00515625 51.27734375 3.0078125 C45.63827789 3.2902365 42.56202375 4.51388359 38.41015625 8.33203125 C35.28887175 12.0239661 34.74738796 15.03321608 34.72584534 19.82478333 C34.71587021 21.01497574 34.70589508 22.20516815 34.69561768 23.431427 C34.69462067 25.38506668 34.69462067 25.38506668 34.69360352 27.37817383 C34.6859803 28.76640773 34.67755251 30.15463741 34.66838074 31.54286194 C34.6464436 35.3115781 34.63763781 39.08021312 34.63255429 42.84898591 C34.6289095 45.20492847 34.62266878 47.56084982 34.6155529 49.91678429 C34.59106022 58.13992622 34.5780071 66.3630051 34.57446289 74.58618164 C34.5708287 82.2445783 34.54094154 89.90257394 34.49905831 97.56084806 C34.46433609 104.14104005 34.44891411 110.72109928 34.44821686 117.30138224 C34.44742463 121.22919915 34.43871177 125.15660757 34.41021919 129.08432961 C34.38400523 132.78058982 34.38185108 136.47610388 34.39787483 140.17241478 C34.40054819 142.1689867 34.37852785 144.1655443 34.35568237 146.1619873 C34.41513578 153.46089774 34.86404677 157.64927006 40 163 C43.91314139 165.49774982 47.4106733 166.45365158 52 167 C52 167.66 52 168.32 52 169 C34.84 169 17.68 169 0 169 C0 168.34 0 167.68 0 167 C0.85271484 166.88785156 0.85271484 166.88785156 1.72265625 166.7734375 C7.69744133 165.75602835 12.21612909 163.90540605 16 159 C17.59858926 154.90487945 18.25277588 151.47066504 18.26742554 147.08656311 C18.28022049 145.34763542 18.28022049 145.34763542 18.29327393 143.57357788 C18.29236755 142.31574493 18.29146118 141.05791199 18.29052734 139.76196289 C18.2965171 138.41284312 18.30332368 137.06372676 18.31088257 135.71461487 C18.32850172 132.06170564 18.33323614 128.4088902 18.33451414 124.75594258 C18.33593832 122.47134829 18.34021289 120.18677766 18.34550858 117.90218925 C18.36399347 109.92541878 18.37218089 101.94871502 18.37060547 93.97192383 C18.36940363 86.5464339 18.39051811 79.12123443 18.4220928 71.69581801 C18.4482717 65.31091324 18.45897213 58.92610327 18.45769465 52.54114527 C18.4571856 48.73191154 18.46283716 44.92293625 18.48405075 41.11375618 C18.50346134 37.53080629 18.5035389 33.9483607 18.48901749 30.36539268 C18.48594077 28.43088708 18.50258504 26.49638127 18.51989746 24.56195068 C18.4712129 17.81779518 18.09818983 13.45376978 14 8 C11.13384924 5.22123188 8.64747625 4.47917357 4.75 3.8125 C3.85796875 3.65394531 2.9659375 3.49539062 2.046875 3.33203125 C1.37140625 3.22246094 0.6959375 3.11289063 0 3 C0 2.01 0 1.02 0 0 Z " fill="#030303" transform="translate(184,181)"/>
<path d="M0 0 C0.66 0 1.32 0 2 0 C1.56955849 11.19147928 -4.06498362 20.07364368 -12.078125 27.61328125 C-16.3839261 31.13045301 -20.95751373 34.10654529 -25.703125 36.9921875 C-28.86534536 38.91799468 -31.93324968 40.92762024 -35 43 C-34.45811035 42.69819824 -33.9162207 42.39639648 -33.35791016 42.08544922 C1.38527788 22.89585515 41.02385764 15.53140344 80 26 C105.83689108 33.55150145 127.64445163 46.62000387 146.61328125 65.6171875 C147.92459203 66.92635211 149.25027037 68.22332739 150.6328125 69.45703125 C174.77182014 91.38434971 187.32378183 129.08132013 189.15673828 160.70410156 C190.21233188 189.80453622 184.22539377 215.58286993 170 241 C169.34 241 168.68 241 168 241 C169.42003027 237.40445538 170.90973416 233.84125311 172.41113281 230.27905273 C180.74215383 210.36989823 185.6252823 191.63254505 185.5 170 C185.49856995 169.19728668 185.49713989 168.39457336 185.4956665 167.5675354 C185.43437699 153.59543039 184.03691751 140.44021166 180 127 C179.78069824 126.26136719 179.56139648 125.52273437 179.33544922 124.76171875 C172.39450014 102.34271318 159.22983505 82.69288312 143 66 C142.45923828 65.43877441 141.91847656 64.87754883 141.36132812 64.29931641 C116.90052109 39.28506654 81.42470206 25.35951366 46.73413086 24.65332031 C34.23025136 24.5568744 22.21435877 25.29927926 10 28 C8.71480469 28.2784375 7.42960937 28.556875 6.10546875 28.84375 C-12.57100869 33.38086284 -31.03869346 41.84393844 -46 54 C-45.13109131 53.85997559 -44.26218262 53.71995117 -43.36694336 53.57568359 C-36.20207406 52.51048909 -29.18732541 51.82525899 -21.94140625 51.7265625 C-21.17436371 51.71542419 -20.40732117 51.70428589 -19.61703491 51.69281006 C-16.46480164 51.65411118 -13.31286847 51.62683035 -10.16040039 51.61914062 C1.98463269 51.68696317 1.98463269 51.68696317 13 47 C13.66 47 14.32 47 15 47 C11.41507727 54.93804319 4.5501285 57.93326097 -3.23046875 61.01953125 C-8.11842001 62.74996251 -12.48252909 63.17001855 -17.66015625 63.24609375 C-19.19206227 63.27906635 -20.72396318 63.31227735 -22.25585938 63.34570312 C-24.6492927 63.39278626 -27.04271067 63.43717231 -29.4362793 63.47680664 C-41.86851719 63.69242443 -52.8301047 64.01612752 -64 70 C-64.99 70 -65.98 70 -67 70 C-66.23404255 62.59574468 -66.23404255 62.59574468 -64.96875 59.375 C-63.64072825 54.7483436 -63.78627152 50.40951271 -63.875 45.625 C-63.88402344 44.69816406 -63.89304688 43.77132812 -63.90234375 42.81640625 C-63.92577063 40.54399923 -63.95857252 38.2721382 -64 36 C-64.30550781 37.00933594 -64.61101562 38.01867187 -64.92578125 39.05859375 C-68.98660531 52.02240448 -74.34850909 64.29513202 -79.97192383 76.65014648 C-81.07607019 79.07730862 -81.07607019 79.07730862 -82 82 C-82.66 82 -83.32 82 -84 82 C-84.33 82.99 -84.66 83.98 -85 85 C-84.4739518 79.20584591 -82.78177843 74.7368284 -80.3125 69.5 C-79.58528286 67.90714189 -78.86005095 66.31337606 -78.13671875 64.71875 C-77.77626465 63.92726562 -77.41581055 63.13578125 -77.04443359 62.3203125 C-73.05134843 53.44927898 -69.35406656 44.69454036 -68 35 C-67.81695312 33.77152344 -67.63390625 32.54304688 -67.4453125 31.27734375 C-66.94497612 27.8538092 -66.46438813 24.42856765 -66 21 C-65.01 21 -64.02 21 -63 21 C-60.95728163 35.4084599 -58.79560618 50.81017086 -63 65 C-62.59007812 64.566875 -62.18015625 64.13375 -61.7578125 63.6875 C-60.94957031 62.8521875 -60.94957031 62.8521875 -60.125 62 C-59.59132812 61.443125 -59.05765625 60.88625 -58.5078125 60.3125 C-57 59 -57 59 -55 59 C-54.92523438 58.31035156 -54.85046875 57.62070313 -54.7734375 56.91015625 C-53.13147967 45.17498702 -47.28532913 38.04404279 -38 31 C-30.08055059 25.40934303 -21.91933238 20.17807561 -13.6875 15.0625 C-7.23799879 10.9699266 -3.53760808 6.6821486 0 0 Z " fill="#0D0D0D" transform="translate(216,90)"/>
<path d="M0 0 C-4.21181777 9.15871695 -13.05487674 13.85477999 -21.30517578 18.93896484 C-23.90908156 20.56912539 -26.45296359 22.28259188 -29 24 C-28.45811035 23.69819824 -27.9162207 23.39639648 -27.35791016 23.08544922 C7.38527788 3.89585515 47.02385764 -3.46859656 86 7 C111.83689108 14.55150145 133.64445163 27.62000387 152.61328125 46.6171875 C153.92459203 47.92635211 155.25027037 49.22332739 156.6328125 50.45703125 C180.77182014 72.38434971 193.32378183 110.08132013 195.15673828 141.70410156 C196.21233188 170.80453622 190.22539377 196.58286993 176 222 C175.34 222 174.68 222 174 222 C175.42003027 218.40445538 176.90973416 214.84125311 178.41113281 211.27905273 C186.74215383 191.36989823 191.6252823 172.63254505 191.5 151 C191.49856995 150.19728668 191.49713989 149.39457336 191.4956665 148.5675354 C191.43437699 134.59543039 190.03691751 121.44021166 186 108 C185.78069824 107.26136719 185.56139648 106.52273437 185.33544922 105.76171875 C178.39450014 83.34271318 165.22983505 63.69288312 149 47 C148.45923828 46.43877441 147.91847656 45.87754883 147.36132812 45.29931641 C122.90052109 20.28506654 87.42470206 6.35951366 52.73413086 5.65332031 C40.23025136 5.5568744 28.21435877 6.29927926 16 9 C14.71480469 9.2784375 13.42960937 9.556875 12.10546875 9.84375 C-1.91571085 13.24994232 -14.78239589 18.87118611 -27.046875 26.3984375 C-29.84069442 27.91360412 -31.92387669 28.42419952 -35 29 C-36.8178979 30.13732364 -36.8178979 30.13732364 -38.3125 31.5625 C-39.199375 32.366875 -40.08625 33.17125 -41 34 C-41.66 33.67 -42.32 33.34 -43 33 C-39.13854764 27.51267296 -34.78208414 23.63251922 -29 20.25 C-15.14394227 11.99980944 -15.14394227 11.99980944 -3.26953125 1.21484375 C-2 0 -2 0 0 0 Z " fill="#1C1C1C" transform="translate(210,109)"/>
<path d="M0 0 C7.53831114 3.45231661 11.41732137 11.85195036 15 19 C16.25518698 22.62512043 17.22379154 26.24462955 18 30 C17.01 30.33 16.02 30.66 15 31 C14.79375 29.9275 14.5875 28.855 14.375 27.75 C12.63207489 20.68989031 9.01537984 14.02306976 5 8 C4.48127834 35.64983069 4.48127834 35.64983069 15 60 C15.33 58.35 15.66 56.7 16 55 C16.33 56.32 16.66 57.64 17 59 C17.66 59 18.32 59 19 59 C18.9685791 60.13707397 18.9685791 60.13707397 18.93652344 61.29711914 C17.86928043 106.09092923 30.23733659 144.04000349 61 177 C86.0952629 202.44927131 121.75815718 217.87513266 157.40576172 218.24145508 C175.41778362 218.28085145 191.68593526 216.88786518 208.77734375 210.98828125 C212 210 212 210 216 210 C216 210.66 216 211.32 216 212 C178.19968538 225.80649789 136.80745906 225.01566714 100 208 C63.9070267 190.59944838 36.70708225 159.585386 22.86572266 122.04785156 C19.99170548 113.60797114 18.4706695 104.77416381 17 96 C16.8040625 94.89527344 16.608125 93.79054688 16.40625 92.65234375 C16.05754432 89.51734556 15.92893841 86.5314553 15.89453125 83.3828125 C15.87970703 82.36316406 15.86488281 81.34351563 15.84960938 80.29296875 C15.82496292 78.18893999 15.81960837 76.08459275 15.83398438 73.98046875 C15.67219562 66.20480321 13.64436736 62.09812706 9 56 C2.72216593 43.23271948 2.59502081 28.37214778 1.46484375 14.453125 C1.06800727 9.62281427 0.55965834 4.8140523 0 0 Z " fill="#181818" transform="translate(95,185)"/>
<path d="M0 0 C3.55074302 3.16751305 5.50586672 6.44456574 7.625 10.6875 C8.21539062 11.84636719 8.80578125 13.00523437 9.4140625 14.19921875 C12.82965053 21.82023071 13.30049281 29.37057806 13.1875 37.625 C13.18685547 38.52734375 13.18621094 39.4296875 13.18554688 40.359375 C13.15288032 45.33921041 12.84056384 50.09110718 12 55 C-0.83561003 40.14346413 0.55429052 18.4290331 0 0 Z " fill="#F3F3F3" transform="translate(99,192)"/>
<path d="M0 0 C0.66 0.33 1.32 0.66 2 1 C-1.11431513 11.84420501 -9.40147121 19.57965025 -17.31689453 27.18896484 C-21.54871675 31.33803143 -24.75386357 35.70857928 -27.73046875 40.85546875 C-29 43 -29 43 -31 45 C-29.98918406 38.14891419 -28.03973932 31.86395777 -25.6875 25.375 C-25.40382568 24.57602295 -25.12015137 23.7770459 -24.82788086 22.95385742 C-22.40897901 16.43512194 -19.93455494 10.02140886 -14.0625 5.9765625 C-13.051875 5.53054687 -12.04125 5.08453125 -11 4.625 C-9.989375 4.16351563 -8.97875 3.70203125 -7.9375 3.2265625 C-6.968125 2.82179687 -5.99875 2.41703125 -5 2 C-4.0925 1.59523437 -3.185 1.19046875 -2.25 0.7734375 C-1.5075 0.51820313 -0.765 0.26296875 0 0 Z " fill="#F2F2F2" transform="translate(147,183)"/>
<path d="M0 0 C4.1268764 6.19031459 2.70305566 15.79686236 2 23 C0.89265158 27.69553752 -0.75970798 31.7381252 -3 36 C-3.68642578 37.31677734 -3.68642578 37.31677734 -4.38671875 38.66015625 C-7.91063304 44.90665637 -12.22935746 50.64868259 -17 56 C-17.33 56 -17.66 56 -18 56 C-18.3679768 50.22501714 -17.26853515 46.31085167 -14.9375 41.0625 C-14.62385498 40.32523682 -14.31020996 39.58797363 -13.98706055 38.82836914 C-12.41780498 35.15973053 -10.78757908 31.5220104 -9.1171875 27.8984375 C-4.93714632 18.76257353 -2.10384303 9.82664571 0 0 Z " fill="#EFEFEF" transform="translate(151,123)"/>
<path d="M0 0 C0.33 0 0.66 0 1 0 C1.46635664 10.18462729 -3.63501567 18.47764504 -10.12109375 25.984375 C-16.73292811 33.07385196 -23.91776847 40.61184564 -32 46 C-30.87789237 31.78663667 -19.22538754 22.03592398 -9.625 12.75 C-6.19721825 9.40093558 -3.64912604 5.75281366 -1.12890625 1.6875 C-0.75636719 1.130625 -0.38382813 0.57375 0 0 Z " fill="#F2F2F2" transform="translate(148,191)"/>
<path d="M0 0 C0 5.54530717 -4.42681502 9.34478675 -8.09765625 13.20703125 C-13.41008434 18.27113215 -19.06477104 22.03534981 -25.37817383 25.68408203 C-33.07789278 30.14063047 -40.08011472 35.4222277 -47 41 C-42.97208767 24.88835068 -25.38896386 16.38713159 -12.24780273 8.46606445 C-7.93783244 5.86435568 -3.82626645 3.30015481 0 0 Z " fill="#F2F2F2" transform="translate(212,101)"/>
<path d="M0 0 C1.56965564 0.0100671 3.13931765 0.01918625 4.70898438 0.02734375 C8.49365191 0.04902245 12.27800189 0.08333815 16.0625 0.125 C11.6530077 5.4789734 3.45400478 6.65377592 -3.16210938 7.3637085 C-8.74857626 7.74724231 -14.33999868 7.78201252 -19.9375 7.8125 C-22.42099883 7.84174892 -24.90432503 7.87637651 -27.38769531 7.91499329 C-28.91691141 7.93714882 -30.44623393 7.95316638 -31.97558594 7.96183777 C-36.06280618 8.00319908 -39.92615798 8.33666424 -43.9375 9.125 C-33.99205938 -2.41171112 -13.90158307 -0.15782026 0 0 Z " fill="#EDEDED" transform="translate(203.9375,143.875)"/>
<path d="M0 0 C-4.21181777 9.15871695 -13.05487674 13.85477999 -21.30517578 18.93896484 C-23.90908156 20.56912539 -26.45296359 22.28259188 -29 24 C-28.45811035 23.69819824 -27.9162207 23.39639648 -27.35791016 23.08544922 C-15.22961257 16.38666536 -3.38724184 10.65717434 10 7 C11.2684375 6.65066406 12.536875 6.30132812 13.84375 5.94140625 C21.18432154 4.14615777 27.53947611 3.73627861 35 5 C35 5.33 35 5.66 35 6 C33.80246094 6.17015625 32.60492188 6.3403125 31.37109375 6.515625 C10.29152273 9.60723736 -8.810997 15.20627541 -27.046875 26.3984375 C-29.84069442 27.91360412 -31.92387669 28.42419952 -35 29 C-36.8178979 30.13732364 -36.8178979 30.13732364 -38.3125 31.5625 C-39.199375 32.366875 -40.08625 33.17125 -41 34 C-41.66 33.67 -42.32 33.34 -43 33 C-39.13854764 27.51267296 -34.78208414 23.63251922 -29 20.25 C-15.14394227 11.99980944 -15.14394227 11.99980944 -3.26953125 1.21484375 C-2 0 -2 0 0 0 Z " fill="#191919" transform="translate(210,109)"/>
<path d="M0 0 C-11.0004187 11.83005922 -22.79619148 17.33016144 -37.68505859 23.05786133 C-39.85328502 23.9402897 -41.92289926 24.92259739 -44 26 C-42.66637198 21.99911595 -40.03702723 20.30710762 -36.8125 17.8125 C-36.18682129 17.3263623 -35.56114258 16.84022461 -34.91650391 16.33935547 C-9.33418901 -3.11139634 -9.33418901 -3.11139634 0 0 Z " fill="#F2F2F2" transform="translate(176,162)"/>
<path d="M0 0 C0.99 0 1.98 0 3 0 C7.68524166 33.04768674 7.68524166 33.04768674 2 47 C1.01 47.495 1.01 47.495 0 48 C-1.10852899 44.7175965 -0.89180737 43.07951093 0.42578125 39.91015625 C2.30897642 34.68072583 2.3450711 29.94440806 2.1875 24.4375 C2.17396484 23.52419922 2.16042969 22.61089844 2.14648438 21.66992188 C2.11155315 19.44596741 2.06251586 17.22332048 2 15 C1.69449219 16.00933594 1.38898438 17.01867187 1.07421875 18.05859375 C-2.98660531 31.02240448 -8.34850909 43.29513202 -13.97192383 55.65014648 C-15.07607019 58.07730862 -15.07607019 58.07730862 -16 61 C-16.66 61 -17.32 61 -18 61 C-18.33 61.99 -18.66 62.98 -19 64 C-18.4739518 58.20584591 -16.78177843 53.7368284 -14.3125 48.5 C-13.58528286 46.90714189 -12.86005095 45.31337606 -12.13671875 43.71875 C-11.77626465 42.92726562 -11.41581055 42.13578125 -11.04443359 41.3203125 C-7.05134843 32.44927898 -3.35406656 23.69454036 -2 14 C-1.81695312 12.77152344 -1.63390625 11.54304688 -1.4453125 10.27734375 C-0.94497612 6.8538092 -0.46438813 3.42856765 0 0 Z " fill="#171717" transform="translate(150,111)"/>
<path d="M0 0 C7.53831114 3.45231661 11.41732137 11.85195036 15 19 C16.25518698 22.62512043 17.22379154 26.24462955 18 30 C17.01 30.33 16.02 30.66 15 31 C14.79375 29.9275 14.5875 28.855 14.375 27.75 C12.63207489 20.68989031 9.01537984 14.02306976 5 8 C4.48127834 35.64983069 4.48127834 35.64983069 15 60 C15.33 58.35 15.66 56.7 16 55 C16.33 56.32 16.66 57.64 17 59 C17.66 59 18.32 59 19 59 C19 61.31 19 63.62 19 66 C18.34 65.01 17.68 64.02 17 63 C15.68 63 14.36 63 13 63 C3.97355079 47.39537137 2.79812283 32.04326849 1.4296875 14.3125 C1.05927279 9.52667233 0.55687097 4.76759704 0 0 Z " fill="#222222" transform="translate(95,185)"/>
<path d="M0 0 C0.33 0 0.66 0 1 0 C2.57941525 38.63087712 2.57941525 38.63087712 -7 53 C-7.62672354 34.38148995 -6.1884029 17.6263865 0 0 Z " fill="#F3F3F3" transform="translate(124,159)"/>
<path d="M0 0 C0.66 0 1.32 0 2 0 C1.70544888 7.65832917 -1.37172342 13.34261178 -5 20 C-5.66 19.67 -6.32 19.34 -7 19 C-6.34 17.35 -5.68 15.7 -5 14 C-15.63702584 14 -36.14987959 32.56900579 -44 40 C-47.46887229 44.21056228 -49.58965118 47.3918995 -50 53 C-51.32 53 -52.64 53 -54 53 C-50.63779475 38.1852831 -37.59778781 30.16034306 -25.54052734 22.42138672 C-22.18511864 20.30753684 -18.82675203 18.20126838 -15.43432617 16.1472168 C-9.7933777 12.68871093 -4.85809723 9.17640588 -1.6875 3.1875 C-1.130625 2.135625 -0.57375 1.08375 0 0 Z " fill="#1A1A1A" transform="translate(216,90)"/>
<path d="M0 0 C-3.58492273 7.93804319 -10.4498715 10.93326097 -18.23046875 14.01953125 C-21.89867356 15.31814818 -25.13999845 16.11681815 -29.03417969 16.20532227 C-29.81468689 16.22526749 -30.59519409 16.24521271 -31.39935303 16.26576233 C-32.23178528 16.28247482 -33.06421753 16.29918732 -33.921875 16.31640625 C-35.21185394 16.3475779 -35.21185394 16.3475779 -36.52789307 16.37937927 C-39.26851598 16.44463739 -42.00923275 16.50364917 -44.75 16.5625 C-46.6106867 16.60570781 -48.47136398 16.64932282 -50.33203125 16.69335938 C-54.88792523 16.80029442 -59.4439134 16.90162851 -64 17 C-64.33 16.01 -64.66 15.02 -65 14 C-63.95247559 13.9906543 -62.90495117 13.98130859 -61.82568359 13.97167969 C-57.87036442 13.93124975 -53.91578067 13.86535657 -49.9609375 13.79248047 C-48.26214172 13.76457351 -46.56322339 13.74321151 -44.86425781 13.72900391 C-33.48230358 13.62821919 -22.42406803 13.21203402 -12 8 C-16.62 7.34 -21.24 6.68 -26 6 C-26 5.67 -26 5.34 -26 5 C-24.9378125 4.97421875 -23.875625 4.9484375 -22.78125 4.921875 C-14.97942115 4.64066987 -6.71025901 0 0 0 Z " fill="#181818" transform="translate(231,137)"/>
<path d="M0 0 C0.66 0 1.32 0 2 0 C2.04950115 4.76886487 2.08576738 9.53757959 2.10986328 14.30664062 C2.11991023 15.92841192 2.13355015 17.55016516 2.15087891 19.171875 C2.17518493 21.50525374 2.18649613 23.8383926 2.1953125 26.171875 C2.20563507 26.89493835 2.21595764 27.61800171 2.22659302 28.36297607 C2.22741782 32.07798039 2.06235471 34.84581045 0 38 C-1.74506615 36.25493385 -1.23282784 33.80960857 -1.31640625 31.43359375 C-1.37924805 29.7465332 -1.37924805 29.7465332 -1.44335938 28.02539062 C-1.48267578 26.84138672 -1.52199219 25.65738281 -1.5625 24.4375 C-1.60568359 23.24962891 -1.64886719 22.06175781 -1.69335938 20.83789062 C-1.79983453 17.89207803 -1.90045681 14.94605498 -2 12 C-3.32 16.95 -4.64 21.9 -6 27 C-6.66 27 -7.32 27 -8 27 C-8.33 27.66 -8.66 28.32 -9 29 C-7.46354782 18.91218263 -5.08647334 8.90132835 0 0 Z " fill="#383838" transform="translate(126,149)"/>
<path d="M0 0 C0.99 0.495 0.99 0.495 2 1 C2.64663557 4.08948105 3.02428349 7.18386071 3.4375 10.3125 C3.623125 11.199375 3.80875 12.08625 4 13 C4.66 13.33 5.32 13.66 6 14 C6.2475 13.05125 6.495 12.1025 6.75 11.125 C8 8 8 8 10.078125 6.8046875 C10.71234375 6.53914062 11.3465625 6.27359375 12 6 C11.3503125 7.35544922 11.3503125 7.35544922 10.6875 8.73828125 C10.130625 9.91777344 9.57375 11.09726563 9 12.3125 C8.443125 13.48425781 7.88625 14.65601563 7.3125 15.86328125 C5.80699916 18.89454167 5.80699916 18.89454167 6 22 C7.32 20.68 8.64 19.36 10 18 C10.99 18.33 11.98 18.66 13 19 C12.51789063 19.45890625 12.03578125 19.9178125 11.5390625 20.390625 C10.90742187 21.00421875 10.27578125 21.6178125 9.625 22.25 C8.99851562 22.85328125 8.37203125 23.4565625 7.7265625 24.078125 C6.02689839 25.9700588 5.01540134 27.68201309 4 30 C3.01 30 2.02 30 1 30 C0.67 20.1 0.34 10.2 0 0 Z " fill="#0A0A0A" transform="translate(111,214)"/>
<path d="M0 0 C0 0.66 0 1.32 0 2 C-9.06819576 5.31214242 -18.01636418 8.2961458 -27.5625 9.875 C-28.2745459 9.99464111 -28.9865918 10.11428223 -29.72021484 10.23754883 C-34.8475923 11.01328413 -39.81668507 11.09174009 -45 11 C-44.67 10.34 -44.34 9.68 -44 9 C-41.93725586 8.48510742 -41.93725586 8.48510742 -39.21484375 8.10546875 C-37.71679199 7.88262207 -37.71679199 7.88262207 -36.18847656 7.65527344 C-34.57924316 7.42372559 -34.57924316 7.42372559 -32.9375 7.1875 C-23.96966175 5.81500767 -15.60357113 3.94977386 -7.046875 0.953125 C-4 0 -4 0 0 0 Z " fill="#222222" transform="translate(311,395)"/>
<path d="M0 0 C0.33 0 0.66 0 1 0 C0.69644632 11.97657234 -4.22045876 22.59249352 -9.125 33.3125 C-9.46152588 34.06023682 -9.79805176 34.80797363 -10.14477539 35.57836914 C-11.01520272 37.42611838 -11.99973272 39.21918942 -13 41 C-14.485 41.495 -14.485 41.495 -16 42 C-14.85106272 39.09086818 -13.66402452 36.20279874 -12.44921875 33.3203125 C-8.95924353 25.03149759 -5.7832992 16.73891491 -3.04296875 8.171875 C-2.12948962 5.39380363 -1.12142974 2.69955032 0 0 Z " fill="#2B2B2B" transform="translate(400,289)"/>
<path d="M0 0 C0.33 0 0.66 0 1 0 C1.03758423 1.07930786 1.03758423 1.07930786 1.07592773 2.18041992 C1.67236049 20.61150964 1.67236049 20.61150964 3 39 C2.34 39 1.68 39 1 39 C-0.59307864 30.61647094 -1.43543938 22.39857808 -1.75 13.875 C-1.80542969 12.75351562 -1.86085938 11.63203125 -1.91796875 10.4765625 C-1.96050781 9.40921875 -2.00304687 8.341875 -2.046875 7.2421875 C-2.08651367 6.2816748 -2.12615234 5.32116211 -2.16699219 4.33154297 C-2 2 -2 2 0 0 Z " fill="#131313" transform="translate(112,247)"/>
<path d="M0 0 C1.32 0 2.64 0 4 0 C4 8.25 4 16.5 4 25 C3.67 25 3.34 25 3 25 C2.67 18.07 2.34 11.14 2 4 C0.68 8.95 -0.64 13.9 -2 19 C-2.66 19 -3.32 19 -4 19 C-4.33 19.66 -4.66 20.32 -5 21 C-4.30130124 16.27826731 -3.19817903 11.72224651 -1.9375 7.125 C-1.75123047 6.43664062 -1.56496094 5.74828125 -1.37304688 5.0390625 C-0.91794189 3.35867486 -0.45933322 1.67923678 0 0 Z " fill="#393939" transform="translate(122,157)"/>
<path d="M0 0 C0 0.33 0 0.66 0 1 C-1.20914063 1.18175781 -2.41828125 1.36351563 -3.6640625 1.55078125 C-5.31785385 1.80373796 -6.97148915 2.0577162 -8.625 2.3125 C-9.48279053 2.44422607 -10.34058105 2.57595215 -11.22436523 2.71166992 C-17.70613012 3.73294753 -24.04025335 5.06134651 -30.41015625 6.64453125 C-31.26480469 6.76183594 -32.11945313 6.87914063 -33 7 C-33.66 6.34 -34.32 5.68 -35 5 C-12.31742136 -1.73286916 -12.31742136 -1.73286916 0 0 Z " fill="#313131" transform="translate(245,114)"/>
<path d="M0 0 C0.99 0.33 1.98 0.66 3 1 C-9.00711238 16.67140825 -9.00711238 16.67140825 -17 22 C-17.99 21.67 -18.98 21.34 -20 21 C-19.57178955 20.61255615 -19.1435791 20.2251123 -18.70239258 19.82592773 C-16.73275356 18.03662838 -14.77264805 16.23718942 -12.8125 14.4375 C-12.13896484 13.82841797 -11.46542969 13.21933594 -10.77148438 12.59179688 C-6.54528084 8.69544337 -3.17726155 4.79365481 0 0 Z " fill="#222222" transform="translate(142,210)"/>
<path d="M0 0 C-0.91265625 0.4021875 -0.91265625 0.4021875 -1.84375 0.8125 C-8.50419225 3.79010948 -15.03093968 6.98045577 -21.515625 10.3203125 C-24.65674098 11.91875022 -27.56235185 13.23660178 -31 14 C-31 13.34 -31 12.68 -31 12 C-27.62894144 10.20084458 -24.25249694 8.41203542 -20.875 6.625 C-19.92367187 6.11710937 -18.97234375 5.60921875 -17.9921875 5.0859375 C-4.83337602 -1.85899078 -4.83337602 -1.85899078 0 0 Z " fill="#151515" transform="translate(212,121)"/>
<path d="M0 0 C0.33 0 0.66 0 1 0 C2.60666308 25.76376337 2.60666308 25.76376337 0 38 C-0.99 37.67 -1.98 37.34 -3 37 C-2.79431396 35.93120605 -2.79431396 35.93120605 -2.58447266 34.84082031 C-1.18724645 27.12292801 -0.59694321 19.58274589 -0.375 11.75 C-0.33632813 10.61175781 -0.29765625 9.47351563 -0.2578125 8.30078125 C-0.16481152 5.53400221 -0.07897139 2.76720883 0 0 Z " fill="#373737" transform="translate(402,253)"/>
<path d="M0 0 C8.93454311 1.61516912 16.59150225 10.04040668 23 16 C22.34 16.66 21.68 17.32 21 18 C20.48953125 17.52691406 19.9790625 17.05382812 19.453125 16.56640625 C13.97871848 11.58702586 8.2836589 7.13404887 2.30859375 2.78515625 C1.54675781 2.19605469 0.78492188 1.60695312 0 1 C0 0.67 0 0.34 0 0 Z " fill="#181818" transform="translate(335,135)"/>
<path d="M0 0 C0.66 0 1.32 0 2 0 C3.17860737 5.26523002 3.18385683 10.31382045 3.1875 15.6875 C3.19974609 16.64978516 3.21199219 17.61207031 3.22460938 18.60351562 C3.22654297 19.52197266 3.22847656 20.44042969 3.23046875 21.38671875 C3.23457764 22.22420654 3.23868652 23.06169434 3.24291992 23.92456055 C3 26 3 26 1 28 C0.67 18.76 0.34 9.52 0 0 Z " fill="#2A2A2A" transform="translate(402,243)"/>
<path d="M0 0 C0.99 0 1.98 0 3 0 C3.33 3.63 3.66 7.26 4 11 C3.01 11.495 3.01 11.495 2 12 C1.34444881 14.52733235 1.34444881 14.52733235 1 17 C0.01 16.67 -0.98 16.34 -2 16 C-1.34 10.72 -0.68 5.44 0 0 Z " fill="#242424" transform="translate(150,111)"/>
<path d="M0 0 C4.62887699 0.74718093 8.86914925 2.25975827 13.25 3.875 C14.34828125 4.25978516 14.34828125 4.25978516 15.46875 4.65234375 C17.34814331 5.34493499 19.17958393 6.16460359 21 7 C21.33 7.99 21.66 8.98 22 10 C13.97928527 8.05797655 6.54549287 5.33160505 -1 2 C-0.67 1.34 -0.34 0.68 0 0 Z " fill="#1F1F1F" transform="translate(196,391)"/>
<path d="M0 0 C0.99 0 1.98 0 3 0 C4.53064939 2.61970793 6.04969748 5.24501643 7.5625 7.875 C8.00013672 8.62136719 8.43777344 9.36773437 8.88867188 10.13671875 C9.29794922 10.85214844 9.70722656 11.56757813 10.12890625 12.3046875 C10.51119385 12.96452637 10.89348145 13.62436523 11.28735352 14.30419922 C11.52252686 14.86381348 11.7577002 15.42342773 12 16 C11.67 16.66 11.34 17.32 11 18 C10.34 18 9.68 18 9 18 C7.68462636 15.56401192 6.37260857 13.1263175 5.0625 10.6875 C4.68931641 9.99720703 4.31613281 9.30691406 3.93164062 8.59570312 C3.57392578 7.92861328 3.21621094 7.26152344 2.84765625 6.57421875 C2.51773682 5.96151123 2.18781738 5.34880371 1.84790039 4.7175293 C1 3 1 3 0 0 Z " fill="#1B1B1B" transform="translate(379,179)"/>
<path d="M0 0 C-0.33 0.66 -0.66 1.32 -1 2 C-1.94746094 1.72736328 -1.94746094 1.72736328 -2.9140625 1.44921875 C-10.54591888 -0.69517894 -18.23688067 -2.40204405 -26 -4 C-26 -4.33 -26 -4.66 -26 -5 C-17.59416812 -7.71155867 -7.8731612 -2.74428292 0 0 Z " fill="#2B2B2B" transform="translate(310,121)"/>
<path d="M0 0 C3.58987694 3.12963631 5.09983787 6.05882291 6.75 10.5 C7.39195312 12.18609375 7.39195312 12.18609375 8.046875 13.90625 C9 17 9 17 9 21 C8.34 21 7.68 21 7 21 C6.01602415 18.4392555 5.03770033 15.87658508 4.0625 13.3125 C3.78470703 12.59126953 3.50691406 11.87003906 3.22070312 11.12695312 C1.82233426 7.43728107 0.61063996 3.91891718 0 0 Z " fill="#141414" transform="translate(389,196)"/>
<path d="M0 0 C0.99 0 1.98 0 3 0 C4.35304209 4.05912626 3.15216503 5.77149591 1.5625 9.6875 C1.08941406 10.86699219 0.61632812 12.04648438 0.12890625 13.26171875 C-0.24363281 14.16535156 -0.61617188 15.06898438 -1 16 C-1.99 16 -2.98 16 -4 16 C-2.84941444 10.60204011 -1.57578241 5.29012667 0 0 Z " fill="#1A1A1A" transform="translate(122,196)"/>
<path d="M0 0 C2.61527381 2.36620011 4.26440562 4.942048 6 8 C6.33 6.35 6.66 4.7 7 3 C7.33 4.32 7.66 5.64 8 7 C8.66 7 9.32 7 10 7 C10 9.31 10 11.62 10 14 C9.34 13.01 8.68 12.02 8 11 C6.68 11 5.36 11 4 11 C0 4.5 0 4.5 0 0 Z " fill="#1A1A1A" transform="translate(104,237)"/>
<path d="M0 0 C1.52521925 4.57565776 -0.73188243 7.43671491 -2.75 11.625 C-3.29140625 12.80835938 -3.29140625 12.80835938 -3.84375 14.015625 C-4.19953125 14.76585937 -4.5553125 15.51609375 -4.921875 16.2890625 C-5.24768555 16.97693848 -5.57349609 17.66481445 -5.90917969 18.37353516 C-7 20 -7 20 -10 21 C-8.32667124 16.66111739 -6.40492764 12.4607008 -4.4375 8.25 C-4.12103516 7.56550781 -3.80457031 6.88101562 -3.47851562 6.17578125 C-1.12153583 1.12153583 -1.12153583 1.12153583 0 0 Z " fill="#161616" transform="translate(394,310)"/>
<path d="M0 0 C0.66 0.33 1.32 0.66 2 1 C0.7951094 4.6146718 0.08033352 4.79730604 -3.18359375 6.515625 C-4.45106445 7.18464844 -4.45106445 7.18464844 -5.74414062 7.8671875 C-6.63294922 8.32351562 -7.52175781 8.77984375 -8.4375 9.25 C-9.32244141 9.72179687 -10.20738281 10.19359375 -11.11914062 10.6796875 C-16.02634471 13.236068 -16.02634471 13.236068 -18 14 C-18.66 13.67 -19.32 13.34 -20 13 C-19.14277344 12.48050781 -18.28554687 11.96101562 -17.40234375 11.42578125 C-11.45663076 7.80536756 -5.58944869 4.15958972 0 0 Z " fill="#CFCFCF" transform="translate(199,120)"/>
<path d="M0 0 C3.20762554 4.81143831 3.119958 9.12415752 3.0625 14.8125 C3.05347656 15.97394531 3.04445313 17.13539063 3.03515625 18.33203125 C3.02355469 19.21246094 3.01195313 20.09289062 3 21 C2.34 21 1.68 21 1 21 C0.25194283 13.97360585 -0.13794954 7.06608191 0 0 Z " fill="#171717" transform="translate(97,192)"/>
<path d="M0 0 C7.15595346 0.70156407 14.01855181 2.30785021 21 4 C21 4.33 21 4.66 21 5 C13.94747877 5.34684531 7.62888142 4.58052884 1 2 C0.67 1.34 0.34 0.68 0 0 Z " fill="#121212" transform="translate(217,399)"/>
<path d="M0 0 C1.32 0 2.64 0 4 0 C2.46356148 3.68069887 0.21849055 5.98775204 -2.625 8.75 C-3.85089844 9.94882813 -3.85089844 9.94882813 -5.1015625 11.171875 C-5.72804687 11.77515625 -6.35453125 12.3784375 -7 13 C-7.66 12.34 -8.32 11.68 -9 11 C-8.0479279 9.99403703 -7.08812654 8.99538437 -6.125 8 C-5.32449219 7.1646875 -5.32449219 7.1646875 -4.5078125 6.3125 C-3 5 -3 5 -1 5 C-0.67 3.35 -0.34 1.7 0 0 Z " fill="#141414" transform="translate(178,157)"/>
<path d="M0 0 C0 0.66 0 1.32 0 2 C-2.28855702 2.86343731 -4.5801928 3.7159811 -6.875 4.5625 C-7.52597656 4.80935547 -8.17695313 5.05621094 -8.84765625 5.31054688 C-10.54497665 5.93173115 -12.27156776 6.47152252 -14 7 C-16 6 -16 6 -17 4 C-14.91891315 3.32635339 -12.8350329 2.66133202 -10.75 2 C-9.58984375 1.62875 -8.4296875 1.2575 -7.234375 0.875 C-4 0 -4 0 0 0 Z " fill="#2B2B2B" transform="translate(311,395)"/>
<path d="M0 0 C0.33 0.66 0.66 1.32 1 2 C-0.03125 2.226875 -1.0625 2.45375 -2.125 2.6875 C-6.34408258 3.86471856 -8.81536784 6.04838971 -12 9 C-12.66 8.67 -13.32 8.34 -14 8 C-9.7347104 2.02859456 -7.74951091 -0.59611622 0 0 Z " fill="#4E4E4E" transform="translate(181,134)"/>
<path d="M0 0 C2.125 0.375 2.125 0.375 4 1 C4.625 2.875 4.625 2.875 5 5 C4.34 5.66 3.68 6.32 3 7 C0.875 6.625 0.875 6.625 -1 6 C-1.625 4.125 -1.625 4.125 -2 2 C-1.34 1.34 -0.68 0.68 0 0 Z " fill="#222222" transform="translate(361,357)"/>
<path d="M0 0 C0.99 0.33 1.98 0.66 3 1 C2.45859375 1.92232422 2.45859375 1.92232422 1.90625 2.86328125 C1.4421875 3.67152344 0.978125 4.47976562 0.5 5.3125 C0.0359375 6.11300781 -0.428125 6.91351563 -0.90625 7.73828125 C-2.21767886 10.0314118 -2.21767886 10.0314118 -2 13 C-3.32 13 -4.64 13 -6 13 C-3.10933941 3.40546697 -3.10933941 3.40546697 0 0 Z " fill="#262626" transform="translate(168,130)"/>
<path d="M0 0 C0 0.66 0 1.32 0 2 C-5.39460953 4.27141454 -10.26157749 4.20413361 -16 4 C-15.67 3.34 -15.34 2.68 -15 2 C-12.63671875 1.3671875 -12.63671875 1.3671875 -9.6875 0.875 C-8.72199219 0.70742187 -7.75648438 0.53984375 -6.76171875 0.3671875 C-4 0 -4 0 0 0 Z " fill="#0E0E0E" transform="translate(212,149)"/>
<path d="M0 0 C2.125 0.375 2.125 0.375 4 1 C4.5625 2.9375 4.5625 2.9375 5 5 C4 6 4 6 1.4375 6.0625 C0.2309375 6.0315625 0.2309375 6.0315625 -1 6 C-1.625 4.125 -1.625 4.125 -2 2 C-1.34 1.34 -0.68 0.68 0 0 Z " fill="#171717" transform="translate(320,387)"/>
<path d="M0 0 C1.2065625 0.0309375 1.2065625 0.0309375 2.4375 0.0625 C3.0625 1.9375 3.0625 1.9375 3.4375 4.0625 C2.7775 4.7225 2.1175 5.3825 1.4375 6.0625 C-0.6875 5.6875 -0.6875 5.6875 -2.5625 5.0625 C-3.125 3.125 -3.125 3.125 -3.5625 1.0625 C-2.5625 0.0625 -2.5625 0.0625 0 0 Z " fill="#181818" transform="translate(378.5625,337.9375)"/>
<path d="M0 0 C0.66 0 1.32 0 2 0 C2.99 4.62 3.98 9.24 5 14 C4.01 14.33 3.02 14.66 2 15 C0.53329887 9.77487721 -0.22577402 5.4185766 0 0 Z " fill="#2A2A2A" transform="translate(114,286)"/>
<path d="M0 0 C0.33 0 0.66 0 1 0 C1.36263859 5.8022175 0.25684543 9.63999211 -2 15 C-2.66 15 -3.32 15 -4 15 C-2.9318153 9.88634986 -1.76892524 4.92772031 0 0 Z " fill="#151515" transform="translate(149,126)"/>
<path d="M0 0 C0.66 0.66 1.32 1.32 2 2 C0.40629329 3.36646148 -1.20032982 4.71787166 -2.8125 6.0625 C-4.15248047 7.19365234 -4.15248047 7.19365234 -5.51953125 8.34765625 C-6.33808594 8.89292969 -7.15664062 9.43820313 -8 10 C-8.99 9.67 -9.98 9.34 -11 9 C-9.54405245 7.68485396 -8.08516421 6.37296283 -6.625 5.0625 C-5.81289062 4.33160156 -5.00078125 3.60070312 -4.1640625 2.84765625 C-2 1 -2 1 0 0 Z " fill="#161616" transform="translate(180,120)"/>
<path d="M0 0 C4.49797113 1.68673918 8.72886302 3.81673892 13 6 C13 6.66 13 7.32 13 8 C8.00786149 7.53198701 3.87036007 5.08284263 0 2 C0 1.34 0 0.68 0 0 Z " fill="#131313" transform="translate(183,384)"/>
<path d="M0 0 C2.87255066 2.42195448 3.70838919 4.59742703 4.6875 8.1875 C4.93886719 9.08855469 5.19023438 9.98960937 5.44921875 10.91796875 C5.63097656 11.60503906 5.81273438 12.29210937 6 13 C5.01 13 4.02 13 3 13 C2.49242138 11.58603098 1.99425075 10.16868271 1.5 8.75 C1.08234375 7.56664062 1.08234375 7.56664062 0.65625 6.359375 C0 4 0 4 0 0 Z " fill="#1D1D1D" transform="translate(117,299)"/>
<path d="M0 0 C0.99 0.33 1.98 0.66 3 1 C1.68 4.3 0.36 7.6 -1 11 C-1.66 11 -2.32 11 -3 11 C-3.33 11.99 -3.66 12.98 -4 14 C-3.46148032 8.72250715 -2.22656164 4.74354436 0 0 Z " fill="#262626" transform="translate(135,161)"/>
<path d="M0 0 C0.99 0.33 1.98 0.66 3 1 C3 1.99 3 2.98 3 4 C-0.3 5.32 -3.6 6.64 -7 8 C-7.33 7.01 -7.66 6.02 -8 5 C-5.36 4.01 -2.72 3.02 0 2 C0 1.34 0 0.68 0 0 Z " fill="#272727" transform="translate(219,143)"/>
<path d="M0 0 C0.66 0 1.32 0 2 0 C2.66 4.29 3.32 8.58 4 13 C3.34 13 2.68 13 2 13 C-0.28571429 4.57142857 -0.28571429 4.57142857 0 0 Z " fill="#121212" transform="translate(400,230)"/>
<path d="M0 0 C4.38259368 1.33912585 6.54093925 3.12225036 9 7 C8.67 7.99 8.34 8.98 8 10 C6.66070495 8.71451591 5.32871357 7.42141845 4 6.125 C2.88625 5.04605469 2.88625 5.04605469 1.75 3.9453125 C0 2 0 2 0 0 Z " fill="#1E1E1E" transform="translate(357,152)"/>
<path d="M0 0 C-3.36423277 2.96052484 -6.69159287 3.92289822 -11 5 C-11.66 4.34 -12.32 3.68 -13 3 C-11.40084119 2.30093058 -9.79544955 1.61610532 -8.1875 0.9375 C-7.29417969 0.55464844 -6.40085938 0.17179688 -5.48046875 -0.22265625 C-3 -1 -3 -1 0 0 Z " fill="#212121" transform="translate(159,178)"/>
<path d="M0 0 C1.15957207 3.47871621 0.77456651 4.34219645 -0.4375 7.6875 C-0.86869141 8.89986328 -0.86869141 8.89986328 -1.30859375 10.13671875 C-1.53675781 10.75160156 -1.76492187 11.36648437 -2 12 C-3.08203125 10.23046875 -3.08203125 10.23046875 -4 8 C-1.78947368 1.78947368 -1.78947368 1.78947368 0 0 Z " fill="#232323" transform="translate(153,147)"/>
<path d="M0 0 C0.89203125 0.11085938 1.7840625 0.22171875 2.703125 0.3359375 C3.37859375 0.43132812 4.0540625 0.52671875 4.75 0.625 C4.75 1.285 4.75 1.945 4.75 2.625 C-2.18 2.13 -2.18 2.13 -9.25 1.625 C-5.16240337 -0.41879831 -4.26314435 -0.56094005 0 0 Z " fill="#272727" transform="translate(243.25,403.375)"/>
<path d="M0 0 C-3.96 1.65 -7.92 3.3 -12 5 C-12 4.01 -12 3.02 -12 2 C-10.75579353 1.4654744 -9.50429064 0.94791389 -8.25 0.4375 C-7.55390625 0.14746094 -6.8578125 -0.14257812 -6.140625 -0.44140625 C-4 -1 -4 -1 0 0 Z " fill="#202020" transform="translate(212,121)"/>
<path d="M0 0 C0.33 0 0.66 0 1 0 C0.88601335 1.62580966 0.75844341 3.25067157 0.625 4.875 C0.52058594 6.23238281 0.52058594 6.23238281 0.4140625 7.6171875 C0 10 0 10 -2 12 C-3.15957207 8.52128379 -2.77456651 7.65780355 -1.5625 4.3125 C-1.13130859 3.10013672 -1.13130859 3.10013672 -0.69140625 1.86328125 C-0.46324219 1.24839844 -0.23507812 0.63351562 0 0 Z " fill="#1B1B1B" transform="translate(400,289)"/>
<path d="M0 0 C0.33 0 0.66 0 1 0 C1 2.64 1 5.28 1 8 C0.01 8.33 -0.98 8.66 -2 9 C-3 6 -3 6 -1.5625 2.8125 C-1.046875 1.884375 -0.53125 0.95625 0 0 Z " fill="#0C0C0C" transform="translate(126,149)"/>
<path d="M0 0 C3.59391114 1.33488128 6.75490696 2.96022723 10 5 C9.34 5.66 8.68 6.32 8 7 C6.66144944 6.21718695 5.32926356 5.42348123 4 4.625 C3.2575 4.18414062 2.515 3.74328125 1.75 3.2890625 C1.1725 2.86367187 0.595 2.43828125 0 2 C0 1.34 0 0.68 0 0 Z " fill="#1C1C1C" transform="translate(326,129)"/>
<path d="M0 0 C1.48206495 0.254496 2.96068615 0.52911762 4.4375 0.8125 C5.67306641 1.03873047 5.67306641 1.03873047 6.93359375 1.26953125 C7.61550781 1.51058594 8.29742187 1.75164062 9 2 C9.33 2.99 9.66 3.98 10 5 C6.37 4.01 2.74 3.02 -1 2 C-0.67 1.34 -0.34 0.68 0 0 Z " fill="#282828" transform="translate(208,396)"/>
<path d="M0 0 C3.99455527 0.61454696 6.74466336 2.70646737 10 5 C9.34 5.66 8.68 6.32 8 7 C6.66382648 6.02471263 5.3311249 5.04466681 4 4.0625 C3.2575 3.51722656 2.515 2.97195312 1.75 2.41015625 C1.1725 1.94480469 0.595 1.47945312 0 1 C0 0.67 0 0.34 0 0 Z " fill="#121212" transform="translate(335,135)"/>
<path d="M0 0 C-2.97 1.32 -5.94 2.64 -9 4 C-9.33 3.01 -9.66 2.02 -10 1 C-5.8922935 -0.58706842 -4.40767604 -1.10191901 0 0 Z " fill="#181818" transform="translate(148,183)"/>
<path d="M0 0 C0.99 0.33 1.98 0.66 3 1 C-0.465 3.97 -0.465 3.97 -4 7 C-4.66 6.34 -5.32 5.68 -6 5 C-1.60546875 0.99609375 -1.60546875 0.99609375 0 0 Z " fill="#121212" transform="translate(121,232)"/>
<path d="M0 0 C2.4375 0.75 2.4375 0.75 5 2 C5.8125 4.125 5.8125 4.125 6 6 C2.535 4.02 2.535 4.02 -1 2 C-0.67 1.34 -0.34 0.68 0 0 Z " fill="#272727" transform="translate(177,380)"/>
<path d="M0 0 C0.33 1.32 0.66 2.64 1 4 C1.66 4 2.32 4 3 4 C3 6.31 3 8.62 3 11 C1.5 10 1.5 10 0 8 C-0.27345479 5.28153765 -0.13491285 2.74322801 0 0 Z " fill="#3F3F3F" transform="translate(111,240)"/>
<path d="M0 0 C0.66 0 1.32 0 2 0 C0.92598892 2.91517292 0.22189824 4.77810176 -2 7 C-2.99 6.67 -3.98 6.34 -5 6 C-3.38405168 3.95880212 -1.7143618 1.95927063 0 0 Z " fill="#1E1E1E" transform="translate(126,213)"/>
<path d="M0 0 C2.15377564 2.62198774 3.40072174 4.64404172 4 8 C3.01 8 2.02 8 1 8 C0.26919734 6.02253397 -0.39421747 4.01927511 -1 2 C-0.67 1.34 -0.34 0.68 0 0 Z " fill="#2E2E2E" transform="translate(387,189)"/>
<path d="M0 0 C0.99 0 1.98 0 3 0 C2.67 2.64 2.34 5.28 2 8 C1.01 7.67 0.02 7.34 -1 7 C-0.67 4.69 -0.34 2.38 0 0 Z " fill="#4A4A4A" transform="translate(400,283)"/>
<path d="M0 0 C0.66 0.33 1.32 0.66 2 1 C1.67 1.99 1.34 2.98 1 4 C-2.0625 5.1875 -2.0625 5.1875 -5 6 C-3.86695008 2.60085025 -2.87481525 1.94745549 0 0 Z " fill="#E2E2E2" transform="translate(199,120)"/>
<path d="M0 0 C0.33 0 0.66 0 1 0 C0.67 3.96 0.34 7.92 0 12 C-0.33 12 -0.66 12 -1 12 C-1.22162329 10.37675914 -1.42689803 8.751279 -1.625 7.125 C-1.74101563 6.22007812 -1.85703125 5.31515625 -1.9765625 4.3828125 C-1.98429687 3.59648437 -1.99203125 2.81015625 -2 2 C-1.34 1.34 -0.68 0.68 0 0 Z " fill="#000000" transform="translate(112,247)"/>
</svg>
